<?xml version="1.0" encoding="UTF-8"?>
<svg id="Layer_1" xmlns="http://www.w3.org/2000/svg" version="1.1" viewBox="0 0 212.96 243.04">
  <!-- Generator: Adobe Illustrator 30.1.0, SVG Export Plug-In . SVG Version: 2.1.1 Build 136)  -->
  <defs>
    <style>
      .st0 {
        fill: #3b82f6;
      }
    </style>
  </defs>
  <g>
    <path class="st0" d="M167.6,142.25c-.07,8.17-.95,16.33-2.18,24.41-.51,2.65-.73,5.93-3.41,7.37-13.6,8.89-27.81,16.78-41.82,24.99-1.55-7.3-4.52-14.29-8.87-20.36,7.65-6.16,14.95-12.75,21.53-20.05.07-3.79.1-51.44.19-55.24-1.45-.42-2.86-.92-4.23-1.49-.15,4.13-.2,52.12-.18,56.25-6.86,6.98-14.21,13.47-21.87,19.55,4.81,6.89,9.13,14.51,10.24,22.97-3.62,1.83-7.21,3.73-10.81,5.59-9.45,5.09-19.3,9.39-29.25,13.39-2.48.97-4.96,2.14-7.67,2.21-5.74.37-11.12-2.73-14.99-6.74-4.99-5.39-7.2-12.6-8.82-19.6-1.6-6.96-2.95-13.97-4.15-21.01.02-.93-.89-1.3-1.51-1.79-3.95-2.75-7.91-5.51-11.86-8.27,3.58-10.46,7.2-20.91,10.76-31.38.82-2.21.86-4.61.49-6.91-.74-4.96-3.62-9.2-5.42-13.79-1.27-3.17-1.36-6.63-1.41-10-.44-14.37,3.18-28.71,9.58-41.53,5.75-11.36,14.12-21.57,24.79-28.61,2.6-1.78,5.57-2.89,8.37-4.32-7.81,2.25-15.13,6.17-21.69,10.94-12.6,9.35-21.78,22.82-27.22,37.44-4.19,11.01-5.98,22.87-5.56,34.62.15,2.17.31,4.45,1.44,6.37,1.78,3.03,4.3,5.58,5.99,8.67,1.01,1.88.5,4.06-.19,5.95-4.45,12.16-9.07,24.28-14.51,36.03-.74,1.86.74,3.79,2.35,4.61,4.28,2.32,8.79,4.17,13.31,5.94,1.54.48,2.31,2.01,2.48,3.52,1.85,10.92,3.02,22.02,6.18,32.67,1.77,5.8,4.72,11.71,10.08,14.96,7.58,4.52,16.97,5.24,25.45,3.24,6.26-1.51,12.45-3.43,18.33-6.08,5.55-2.71,10.99-5.65,16.44-8.55,19.8-10.72,39.55-21.82,57.22-35.86,2.24-1.9,5.24-3.94,5.22-7.21-.67-11.03-1.59-22.05-2.52-33.06-.1.06-.19.12-.29.19Z"/>
    <path class="st0" d="M41.62,118.48c4.7-.55,9.44.07,14.14.4,5.75.62,11.54,1.75,16.84,4.13-2.52,2.44-5.66,4.1-8.77,5.66-5.8,2.87-11.63,5.67-17.49,8.41-2.91-5.62-2.99-13.03,1.31-17.98-2.02-.18-4.06-.16-6.04-.61ZM48.65,134.47c5.21-3.91,10.33-7.95,15.8-11.49-4.37-1.48-8.88-2.56-13.47-3.06-3.7,3.82-4.16,9.74-2.33,14.55Z"/>
  </g>
  <path class="st0" d="M130.02,106.22c-10.44,0-18.93-8.49-18.93-18.93s8.49-18.93,18.93-18.93,18.93,8.49,18.93,18.93-8.49,18.93-18.93,18.93ZM130.02,74.16c-7.24,0-13.13,5.89-13.13,13.13s5.89,13.13,13.13,13.13,13.13-5.89,13.13-13.13-5.89-13.13-13.13-13.13Z"/>
  <g>
    <g>
      <path class="st0" d="M130.02,21.34c-3.36,0-6.1-2.73-6.1-6.1s2.73-6.09,6.1-6.09,6.1,2.73,6.1,6.09-2.73,6.1-6.1,6.1ZM130.02,12.13c-1.72,0-3.11,1.4-3.11,3.11s1.4,3.12,3.11,3.12,3.11-1.4,3.11-3.12-1.4-3.11-3.11-3.11Z"/>
      <path class="st0" d="M141.97,35.76c-3.36,0-6.1-2.73-6.1-6.1s2.73-6.09,6.1-6.09,6.1,2.73,6.1,6.09-2.73,6.1-6.1,6.1ZM141.97,26.55c-1.72,0-3.11,1.4-3.11,3.11s1.4,3.12,3.11,3.12,3.11-1.4,3.11-3.12-1.4-3.11-3.11-3.11Z"/>
      <rect class="st0" x="128.53" y="19.85" width="2.98" height="52.22"/>
      <polygon class="st0" points="130.98 53.38 129.05 51.11 140.48 41.35 140.48 33.04 143.46 33.04 143.46 42.73 130.98 53.38"/>
    </g>
    <g>
      <path class="st0" d="M115.79,49.4c-3.36,0-6.1-2.73-6.1-6.09s2.73-6.1,6.1-6.1,6.1,2.73,6.1,6.1-2.73,6.09-6.1,6.09ZM115.79,40.19c-1.72,0-3.11,1.4-3.11,3.12s1.4,3.11,3.11,3.11,3.11-1.4,3.11-3.11-1.4-3.12-3.11-3.12Z"/>
      <polygon class="st0" points="125.16 72.07 122.17 72.07 122.17 63.77 114.3 56.32 114.3 46.68 117.28 46.68 117.28 55.04 125.16 62.48 125.16 72.07"/>
    </g>
  </g>
  <g>
    <g>
      <path class="st0" d="M189.57,108.93c-.53,0-1.07-.07-1.6-.22-3.24-.89-5.16-4.24-4.28-7.49.43-1.57,1.44-2.88,2.86-3.69,1.42-.81,3.06-1.02,4.63-.59,1.57.43,2.88,1.44,3.69,2.86.81,1.41,1.02,3.06.59,4.63-.74,2.71-3.2,4.49-5.88,4.49ZM189.57,99.71c-.53,0-1.06.14-1.54.41-.72.41-1.24,1.08-1.46,1.88-.45,1.66.53,3.37,2.18,3.82,1.66.46,3.37-.53,3.83-2.19.22-.8.11-1.64-.3-2.36-.41-.72-1.08-1.24-1.88-1.46h0c-.27-.08-.55-.11-.83-.11Z"/>
      <path class="st0" d="M178.82,93.6c-.54,0-1.08-.07-1.62-.22-1.57-.43-2.88-1.44-3.69-2.86-.81-1.41-1.02-3.06-.59-4.63.88-3.24,4.24-5.16,7.48-4.28h0c3.24.89,5.16,4.24,4.27,7.49-.43,1.57-1.44,2.88-2.86,3.69-.93.53-1.97.81-3.01.81ZM178.81,84.38c-1.37,0-2.63.91-3.01,2.3-.22.8-.11,1.64.3,2.37.41.72,1.08,1.24,1.88,1.46.8.22,1.64.11,2.37-.3.72-.41,1.24-1.08,1.46-1.88.45-1.66-.53-3.37-2.18-3.82-.27-.08-.55-.11-.82-.11Z"/>
      <rect class="st0" x="163.71" y="75.93" width="2.98" height="41.16" transform="translate(30.7 232.57) rotate(-75.63)"/>
      <polygon class="st0" points="154.72 94.32 153.04 91.86 166.6 82.62 175.95 85.17 175.17 88.05 167.14 85.86 154.72 94.32"/>
    </g>
    <g>
      <path class="st0" d="M193.69,125.24c-.53,0-1.07-.07-1.6-.22h0c-3.24-.89-5.16-4.24-4.27-7.49.43-1.57,1.44-2.88,2.86-3.69,1.42-.81,3.06-1.02,4.63-.59,1.57.43,2.88,1.44,3.69,2.86.81,1.41,1.02,3.06.59,4.63-.74,2.71-3.2,4.49-5.88,4.49ZM192.88,122.15c1.66.45,3.37-.53,3.83-2.18.22-.8.11-1.64-.3-2.37-.41-.72-1.08-1.24-1.88-1.46-.8-.22-1.64-.11-2.37.3-.72.41-1.24,1.08-1.46,1.88-.45,1.66.53,3.37,2.18,3.82h0Z"/>
      <polygon class="st0" points="190.05 119.7 180.75 117.16 175.64 107.6 143.2 98.97 143.97 96.09 177.66 105.06 182.77 114.62 190.84 116.82 190.05 119.7"/>
    </g>
  </g>
  <g>
    <path class="st0" d="M174.21,58.34c-1.85,0-3.69-.84-4.88-2.44-2.02-2.69-1.47-6.52,1.22-8.53,1.3-.98,2.91-1.39,4.52-1.16,1.61.23,3.04,1.08,4.01,2.38.98,1.3,1.39,2.91,1.16,4.52-.23,1.61-1.07,3.04-2.38,4.01-1.09.82-2.38,1.22-3.65,1.22ZM174.2,49.13c-.67,0-1.32.21-1.86.62-1.37,1.03-1.65,2.99-.62,4.36,1.03,1.37,2.98,1.65,4.36.62.67-.5,1.1-1.23,1.22-2.05.12-.82-.09-1.64-.59-2.31-.5-.67-1.23-1.1-2.05-1.22-.15-.02-.3-.03-.45-.03Z"/>
    <rect class="st0" x="136.96" y="64.79" width="37.34" height="2.98" transform="translate(-8.46 107.35) rotate(-37.12)"/>
  </g>
</svg>